<svg class="svg-icon" style="width: 1em;height: 1em;vertical-align: middle;fill: currentColor;overflow: hidden;" viewBox="0 0 1024 1024" version="1.1" xmlns="http://www.w3.org/2000/svg"><path d="M648.6 186.6v123.2c0 33.8 28.4 62.3 63.6 62.3h108.3L648.6 186.6z" fill="#A1DAE6" /><path d="M647.9 186.6h-375c-40.6 0-73.1 32.5-73.1 73.1v503.6c0 40.6 32.5 73.1 73.1 73.1h473.8c40.6 0 73.1-32.5 73.1-73.1V372.1L647.9 186.6z" fill="#17A8FF" /><path d="M353.4 590.1V446.5h51.4c16.2 0 28.4 2.7 36.6 9.5 8.1 5.4 12.2 13.5 12.2 24.4 0 8.1-2.7 14.9-8.1 20.3-5.4 5.4-12.2 9.5-20.3 12.2 9.5 1.4 17.6 5.4 24.4 10.8 6.8 6.8 9.5 13.5 9.5 23 0 13.5-4.1 23-13.5 31.1-9.5 8.1-21.7 12.2-37.9 12.2-0.2 0.1-54.3 0.1-54.3 0.1z m31.1-120.5v35.2h14.9c6.8 0 12.2-1.4 16.2-5.4 4.1-4.1 5.4-8.1 5.4-13.5 0-10.8-8.1-16.2-24.4-16.2 0.1-0.1-12.1-0.1-12.1-0.1z m0 58.2V567h17.6c8.1 0 13.5-1.4 17.6-5.4 4.1-4.1 6.8-8.1 6.8-14.9 0-5.4-2.7-10.8-6.8-13.5-4.1-2.7-10.8-5.4-19-5.4h-16.2z m86.6-6.8c0-23 6.8-40.6 20.3-55.5 13.5-13.5 31.1-21.7 52.8-21.7 20.3 0 37.9 6.8 50.1 20.3 12.2 13.5 19 31.1 19 52.8s-6.8 40.6-19 54.2c-13.5 13.5-29.8 20.3-51.4 20.3-20.3 0-37.9-6.8-50.1-20.3-14.9-12.2-21.7-29.8-21.7-50.1z m32.5-2.7c0 13.5 4.1 25.7 10.8 33.8 6.8 9.5 16.2 13.5 28.4 13.5s21.7-4.1 28.4-12.2c6.8-8.1 9.5-20.3 9.5-33.8 0-14.9-2.7-27.1-9.5-35.2-6.8-8.1-16.2-13.5-27.1-13.5-12.2 0-21.7 4.1-28.4 13.5-6.7 9.5-12.1 20.4-12.1 33.9z m261.3 71.8v-86.6c0-8.1 0-17.6 1.4-29.8h-1.4c-1.4 9.5-2.7 14.9-4.1 19l-35.2 98.8h-24.4L664.6 494c-1.4-2.7-2.7-8.1-4.1-19h-1.4c1.4 12.2 1.4 24.4 1.4 36.6v81.2h-28.4V446.5h44.7l31.1 86.6c2.7 6.8 4.1 13.5 5.4 20.3 1.4-8.1 4.1-14.9 5.4-20.3l31.1-86.6h43.3V590c0.3 0.1-28.2 0.1-28.2 0.1zM234.2 570.5l16.2-19.4c10.1 9.3 23.4 15.6 35.8 15.6 14.7 0 22.5-6.3 22.5-16.2 0-10.5-8.6-13.7-21.1-19l-18.9-8c-14.3-5.9-28.6-17.3-28.6-37.9 0-23 20.2-40.8 48.8-40.8 16.4 0 32.8 6.5 44.2 18.1l-14.3 17.7c-9-7.4-18.3-11.6-29.9-11.6-12.4 0-20.4 5.5-20.4 14.9 0 10.1 10.1 13.7 22.1 18.5l18.5 7.8c17.1 7 28.4 17.9 28.4 38.3 0 23-19.2 42.7-51.8 42.7-18.9-0.2-37.8-7.6-51.5-20.7z" fill="#FFFFFF" /><path d="M645.7 184.9v123.2c0 33.8 28.4 62.3 63.6 62.3h108.3L645.7 184.9z" fill="#FFFFFF" opacity=".59" /></svg>